<?xml version="1.0" encoding="utf-8"?>
<!-- Generator: Adobe Illustrator 16.0.0, SVG Export Plug-In . SVG Version: 6.00 Build 0)  -->
<!DOCTYPE svg PUBLIC "-//W3C//DTD SVG 1.1//EN" "http://www.w3.org/Graphics/SVG/1.1/DTD/svg11.dtd">
<svg version="1.1" id="Layer_1" xmlns="http://www.w3.org/2000/svg" xmlns:xlink="http://www.w3.org/1999/xlink" x="0px" y="0px"
	 width="150px" height="150px" viewBox="0 0 150 150" enable-background="new 0 0 150 150" xml:space="preserve">
<g>
	<g>
		<path d="M149.2,52.56c-0.237-4.087-5.099-7.281-14.82-9.718c0.326-0.716,0.51-1.461,0.513-2.236V23.893h-0.041
			C133.997,9.97,76.945,9.56,70.393,9.56S6.788,9.97,5.934,23.893H5.893v0.311l0,0l0,0v16.409c0.012,4.539,5.87,8.091,14.584,10.736
			c-0.119,0.396-0.19,0.8-0.215,1.211h-0.036v0.311l0,0l0,0v16.38c-9.388,2.418-14.078,5.567-14.31,9.586H5.893v0.311l0,0l0,0
			v16.409c0.007,3.161,2.857,5.842,7.52,8.075c-0.176,0.484-0.287,0.979-0.317,1.485H13.06v0.311l0,0l0,0v16.409
			c0.019,7.946,17.909,12.879,37.787,15.183c0.146,0.027,0.28,0.088,0.435,0.088c0.045,0,0.083-0.024,0.129-0.026
			c3.832,0.432,7.726,0.769,11.579,1.011c0.081,0.009,0.153,0.047,0.236,0.047c0.046,0,0.082-0.023,0.125-0.025
			c4.892,0.296,9.706,0.446,14.209,0.446c4.504,0,9.316-0.15,14.209-0.449c0.043,0.003,0.081,0.026,0.124,0.026
			c0.084,0,0.155-0.04,0.236-0.048c3.854-0.24,7.748-0.576,11.579-1.011c0.045,0,0.084,0.024,0.13,0.024
			c0.154,0,0.289-0.061,0.434-0.089c19.879-2.303,37.767-7.238,37.788-15.186v-16.714h-0.038c-0.168-2.928-2.664-5.372-7.595-7.415
			c0.301-0.689,0.466-1.406,0.466-2.149V79.936c8.576-2.637,14.321-6.165,14.334-10.663V52.56H149.2z M129.857,96.327l-0.815,0.714
			c-1.254,1.106-3.344,2.222-6.094,3.297V88.947c2.841-0.988,5.258-2.085,7.166-3.288v9.886
			C130.114,95.791,130.024,96.054,129.857,96.327z M76.427,107.428c-0.349,0.009-0.7,0.014-1.051,0.021
			c-0.853,0.017-1.727,0.021-2.592,0.028V95.545c0.657-0.007,1.314-0.017,1.971-0.028c0.126-0.002,0.253-0.005,0.38-0.008
			c2.406-0.044,4.811-0.119,7.204-0.229v11.928c-0.512,0.026-1.024,0.05-1.543,0.071C79.358,107.345,77.906,107.392,76.427,107.428z
			 M65.995,107.461c-1.094-0.02-2.184-0.045-3.265-0.079c-0.134-0.004-0.268-0.009-0.402-0.014c-1.302-0.043-2.594-0.098-3.877-0.16
			V95.282c2.394,0.112,4.799,0.187,7.205,0.229c0.126,0.003,0.253,0.005,0.378,0.008c0.657,0.012,1.313,0.021,1.971,0.028v11.94
			c-0.463-0.006-0.927-0.006-1.388-0.013C66.406,107.47,66.203,107.464,65.995,107.461z M22.847,102.015
			c-0.079-0.024-0.153-0.046-0.231-0.067v-11.54c2.231,0.602,4.629,1.151,7.167,1.65v11.66c-2.193-0.466-4.216-0.956-6.059-1.457
			C23.432,102.177,23.131,102.098,22.847,102.015z M73.2,121.796c0.657,0.013,1.313,0.022,1.971,0.029v11.942
			c-3.301-0.031-6.488-0.127-9.556-0.277v-11.928c2.394,0.112,4.8,0.187,7.205,0.229C72.946,121.792,73.073,121.795,73.2,121.796z
			 M82.299,121.79c2.406-0.046,4.812-0.12,7.205-0.229v11.928c-3.067,0.149-6.254,0.245-9.556,0.276v-11.941
			c0.656-0.008,1.314-0.017,1.97-0.028C82.046,121.795,82.172,121.792,82.299,121.79z M101.448,120.71v11.863
			c-2.296,0.241-4.685,0.453-7.166,0.628v-11.913C96.704,121.13,99.098,120.937,101.448,120.71z M106.227,120.194
			c2.463-0.297,4.854-0.633,7.166-1.008v11.729c-2.25,0.396-4.641,0.762-7.166,1.095V120.194z M118.17,118.333
			c2.537-0.499,4.936-1.049,7.167-1.65v11.54c-2.129,0.614-4.524,1.209-7.167,1.771V118.333z M36.948,118.333v11.66
			c-2.642-0.562-5.038-1.156-7.167-1.771v-11.54C32.013,117.284,34.412,117.836,36.948,118.333z M41.726,119.188
			c2.312,0.376,4.704,0.713,7.167,1.009v11.815c-2.525-0.332-4.916-0.697-7.167-1.094V119.188z M53.67,120.71
			c2.351,0.227,4.745,0.42,7.167,0.581v11.913c-2.482-0.175-4.872-0.388-7.167-0.629V120.71z M47.744,106.425
			c-0.244-0.024-0.485-0.051-0.726-0.074c-0.172-0.017-0.342-0.038-0.514-0.055V94.435c2.351,0.227,4.745,0.42,7.167,0.581v11.903
			C51.664,106.775,49.681,106.613,47.744,106.425z M41.726,93.916v11.815c-2.525-0.331-4.917-0.697-7.167-1.094V92.908
			C36.872,93.283,39.263,93.622,41.726,93.916z M88.705,106.806c-0.524,0.041-1.055,0.082-1.59,0.12V95.013
			c2.422-0.16,4.815-0.352,7.167-0.581v11.864c-1.477,0.154-2.986,0.301-4.537,0.427C89.398,106.754,89.052,106.78,88.705,106.806z
			 M99.06,105.731V93.916c2.463-0.297,4.854-0.633,7.167-1.008v11.729C103.976,105.034,101.585,105.401,99.06,105.731z
			 M111.004,92.055c2.536-0.499,4.936-1.049,7.166-1.65v11.541c-2.128,0.613-4.523,1.208-7.166,1.77V92.055z M78.336,81.142
			c-1.797-0.044-3.553-0.113-5.277-0.198c-0.093-0.004-0.187-0.009-0.277-0.011V69.005c2.394,0.112,4.798,0.186,7.205,0.229
			c0.127,0.002,0.254,0.005,0.378,0.007c0.656,0.012,1.313,0.021,1.971,0.028v11.928c-1.163-0.012-2.337-0.017-3.472-0.043
			C78.689,81.149,78.51,81.147,78.336,81.142z M22.615,47.003V35.462c2.231,0.603,4.629,1.152,7.167,1.651v11.66
			c-0.294-0.062-0.597-0.124-0.884-0.186c-1.271-0.279-2.511-0.571-3.695-0.879C24.299,47.476,23.441,47.24,22.615,47.003z
			 M66.033,40.574c0.657,0.012,1.313,0.022,1.971,0.029v11.928c-3.215-0.031-6.412-0.115-9.556-0.272V40.34
			c2.394,0.112,4.8,0.187,7.206,0.229C65.78,40.57,65.907,40.572,66.033,40.574z M75.132,40.567c2.406-0.045,4.811-0.12,7.205-0.229
			v11.918c-0.405,0.019-0.796,0.048-1.204,0.067c-0.033,0.002-0.066,0.002-0.102,0.004c-1.604,0.072-3.237,0.125-4.893,0.163
			c-0.259,0.007-0.517,0.01-0.774,0.017c-0.851,0.017-1.72,0.019-2.583,0.029V40.603c0.657-0.007,1.314-0.017,1.971-0.029
			C74.879,40.572,75.005,40.57,75.132,40.567z M129.568,41.767l-0.067-0.015l-0.869,0.676c-1.262,0.982-3.199,1.976-5.684,2.936V34
			c2.841-0.989,5.258-2.085,7.166-3.288v9.886C130.114,40.961,129.924,41.354,129.568,41.767z M99.06,50.772V38.971
			c2.463-0.296,4.854-0.633,7.167-1.008v11.71C103.962,50.075,101.577,50.443,99.06,50.772z M111.004,48.754V37.113
			c2.536-0.499,4.936-1.048,7.166-1.651v11.515C116.03,47.6,113.619,48.195,111.004,48.754z M94.282,39.487v11.849
			c-2.308,0.244-4.696,0.457-7.167,0.633V40.068C89.537,39.908,91.931,39.714,94.282,39.487z M46.504,51.341V39.487
			c2.351,0.227,4.745,0.42,7.167,0.581V51.96C51.239,51.786,48.84,51.587,46.504,51.341z M41.726,38.971v11.804
			c-0.473-0.062-0.965-0.113-1.434-0.177c-0.306-0.043-0.597-0.088-0.898-0.131c-1.381-0.198-2.73-0.411-4.054-0.633
			c-0.265-0.045-0.521-0.093-0.781-0.138V37.966C36.872,38.338,39.263,38.678,41.726,38.971z M67.411,80.603
			c-0.322-0.023-0.647-0.048-0.967-0.072c-1.529-0.119-3.021-0.25-4.479-0.396c-0.313-0.03-0.626-0.063-0.937-0.095
			c-0.064-0.007-0.126-0.017-0.191-0.021V68.154c2.351,0.227,4.744,0.421,7.167,0.581v11.906
			C67.81,80.627,67.605,80.617,67.411,80.603z M51.628,78.818c-0.946-0.15-1.835-0.312-2.735-0.47V66.632
			c2.312,0.375,4.704,0.712,7.167,1.008v11.815c-1.462-0.193-2.894-0.395-4.267-0.609C51.738,78.836,51.683,78.825,51.628,78.818z
			 M44.115,65.777v11.641c-2.639-0.566-5.033-1.168-7.167-1.794V64.126C39.18,64.729,41.578,65.281,44.115,65.777z M32.17,62.667
			v11.35c-3.755-1.45-6.178-2.931-6.966-4.25l-0.16-0.267c-0.015-0.074-0.038-0.153-0.041-0.227v-9.893
			C26.913,60.582,29.33,61.678,32.17,62.667z M89.466,69.234c2.406-0.045,4.812-0.119,7.205-0.229v11.916
			c-3.14,0.154-6.33,0.24-9.556,0.274V69.27c0.656-0.007,1.313-0.017,1.97-0.028C89.212,69.239,89.339,69.236,89.466,69.234z
			 M120.337,78.4c-1.048,0.182-2.106,0.361-3.194,0.526c-0.623,0.094-1.261,0.185-1.901,0.275c-0.604,0.086-1.232,0.161-1.846,0.239
			V67.639c2.463-0.297,4.854-0.633,7.166-1.008v11.729C120.485,78.374,120.411,78.388,120.337,78.4z M104.162,80.439
			c-0.891,0.074-1.812,0.123-2.714,0.188V68.735c2.423-0.16,4.816-0.351,7.166-0.581v11.852c-1.388,0.146-2.773,0.291-4.199,0.411
			C104.329,80.423,104.248,80.434,104.162,80.439z M131.463,75.961c-1.19,0.333-2.449,0.642-3.734,0.946
			c-0.595,0.139-1.201,0.277-1.823,0.411c-0.184,0.04-0.379,0.075-0.565,0.116V65.78c2.537-0.499,4.936-1.049,7.167-1.651v11.54
			C132.162,75.766,131.815,75.863,131.463,75.961z M144.423,52.715c-0.221,1.622-3.897,3.779-10.459,5.808l0,0
			c-8.453,2.611-21.678,5.002-38.438,5.743c-0.856,0.036-1.712,0.072-2.587,0.1c-0.714,0.024-1.431,0.045-2.159,0.064
			c-1.978,0.043-3.984,0.074-6.053,0.074c-2.069,0-4.076-0.031-6.054-0.077c-0.727-0.017-1.443-0.04-2.159-0.064
			c-0.877-0.026-1.733-0.064-2.588-0.101c-16.76-0.741-29.988-3.132-38.437-5.743l0,0c-6.51-2.011-10.179-4.152-10.452-5.767
			c0.012-0.045,0.012-0.083,0.041-0.141c0.162,0.041,0.344,0.074,0.508,0.115c0.935,0.222,1.892,0.437,2.867,0.642
			c4.747,1.023,10.007,1.861,15.611,2.501c0.019,0,0.033,0.009,0.05,0.009c0.005,0,0.01-0.002,0.012-0.002
			c3.817,0.435,7.778,0.776,11.844,1.018c0.031,0,0.057,0.017,0.088,0.017c0.017,0,0.029-0.009,0.045-0.009
			c2.926,0.172,5.891,0.298,8.891,0.365c1.837,0.045,3.641,0.069,5.396,0.069c1.254,0,2.54-0.014,3.837-0.038
			c17.357-0.268,33.443-2.332,44.639-5.531c0.517-0.146,1.021-0.296,1.517-0.446c0.304-0.093,0.614-0.184,0.908-0.277
			c0.865-0.277,1.694-0.562,2.494-0.857c0.138-0.052,0.27-0.105,0.407-0.158c0.677-0.256,1.327-0.521,1.947-0.791
			c0.18-0.079,0.363-0.155,0.538-0.234c0.662-0.298,1.302-0.604,1.895-0.922c0.267-0.142,0.499-0.287,0.75-0.43
			c0.286-0.165,0.573-0.332,0.839-0.502c0.15-0.095,0.33-0.186,0.473-0.282C141.33,49.189,144.15,51.726,144.423,52.715z
			 M70.393,14.337c39.391,0,59.313,6.202,59.687,9.761c-0.289,1.615-3.956,3.749-10.449,5.755l0,0
			c-8.451,2.611-21.676,5.002-38.438,5.742c-0.857,0.036-1.712,0.072-2.587,0.101c-0.714,0.024-1.432,0.045-2.16,0.064
			c-1.977,0.045-3.984,0.077-6.053,0.077s-4.075-0.031-6.053-0.077c-0.727-0.017-1.443-0.041-2.16-0.064
			c-0.877-0.026-1.732-0.064-2.587-0.101c-16.76-0.74-29.987-3.131-38.437-5.742l0,0c-6.495-2.007-10.16-4.14-10.449-5.755
			C11.079,20.539,31.002,14.337,70.393,14.337z M10.67,40.605v-9.893c1.909,1.202,4.326,2.298,7.167,3.288v11.438
			C13.191,43.697,10.675,41.95,10.67,40.605z M22.242,73.666c0.036,0.039,0.091,0.072,0.126,0.11
			c3.271,3.301,10.043,5.896,18.474,7.831c0.193,0.045,0.399,0.088,0.595,0.133c0.619,0.14,1.247,0.275,1.882,0.407
			c7.742,1.647,16.985,2.84,27.054,3.43c0.007,0,0.012,0.003,0.017,0.003c0.005,0,0.007-0.003,0.01-0.003
			c3.234,0.189,6.543,0.32,9.92,0.378c1.496,0.03,2.968,0.05,4.406,0.05c1.647,0,3.339-0.02,5.059-0.06
			c3.125-0.064,6.205-0.193,9.24-0.371c0.012,0,0.022,0.008,0.034,0.008c0.021,0,0.038-0.013,0.06-0.013
			c10.096-0.595,19.567-1.798,27.577-3.529c-1.734,0.907-4.108,1.846-7.066,2.761l0,0c-8.922,2.757-23.172,5.268-41.282,5.851
			c-0.537,0.017-1.067,0.036-1.612,0.05c-0.585,0.016-1.181,0.024-1.775,0.036c-1.502,0.023-3.015,0.046-4.567,0.046
			c-2.069,0-4.075-0.031-6.053-0.077c-0.727-0.017-1.443-0.041-2.16-0.064c-0.877-0.026-1.732-0.064-2.587-0.101
			c-16.76-0.74-29.987-3.132-38.437-5.743l0,0c-6.569-2.03-10.246-4.189-10.458-5.812C10.962,78.087,13.377,75.84,22.242,73.666z
			 M10.67,95.55v-9.892c1.909,1.201,4.326,2.298,7.167,3.287v11.393l-1.364-0.531l-0.029,0.029
			C12.694,98.28,10.675,96.754,10.67,95.55z M17.837,121.828v-9.893c1.909,1.202,4.326,2.299,7.167,3.287v11.438
			C20.357,124.919,17.842,123.173,17.837,121.828z M130.114,126.66v-11.435c2.842-0.989,5.259-2.086,7.167-3.288v9.886
			C137.279,123.168,134.761,124.917,130.114,126.66z M137.25,105.299c-0.261,1.617-3.93,3.763-10.453,5.779l0,0
			c-8.452,2.611-21.677,5.002-38.437,5.742c-0.858,0.036-1.714,0.072-2.589,0.101c-0.714,0.023-1.43,0.046-2.159,0.064
			c-1.978,0.043-3.983,0.074-6.053,0.074s-4.078-0.031-6.058-0.076c-0.719-0.017-1.429-0.041-2.139-0.064
			c-0.881-0.029-1.741-0.064-2.604-0.101c-16.761-0.741-29.985-3.132-38.438-5.743l0,0c-6.318-1.951-9.969-4.024-10.427-5.626
			c0.712,0.249,1.45,0.49,2.208,0.727c0.076,0.023,0.153,0.048,0.229,0.069c0.645,0.198,1.305,0.39,1.98,0.576
			c0.255,0.071,0.514,0.144,0.774,0.212c0.382,0.103,0.774,0.201,1.166,0.301c8.7,2.229,19.806,3.808,31.796,4.518
			c0.005,0,0.007,0.003,0.012,0.003c0.002,0,0.004-0.003,0.007-0.003c3.703,0.22,7.484,0.355,11.307,0.402
			c1.017,0.019,2.028,0.027,3.019,0.027c1.316,0,2.664-0.017,4.028-0.04c3.486-0.057,6.925-0.187,10.289-0.387
			c0.008,0,0.013,0.005,0.02,0.005c0.012,0,0.019-0.008,0.031-0.008c4.097-0.245,8.062-0.597,11.872-1.034
			c0.015,0,0.027,0.007,0.041,0.007c0.053,0,0.095-0.025,0.148-0.03c4.243-0.49,8.265-1.092,11.999-1.793
			c0.77-0.141,1.526-0.286,2.276-0.436c0.167-0.034,0.335-0.068,0.502-0.104c7.054-1.447,13.16-3.323,17.351-5.647
			c0.229-0.124,0.444-0.253,0.661-0.38c0.266-0.157,0.52-0.317,0.765-0.479c0.229-0.148,0.495-0.292,0.705-0.442
			C135.796,103.194,137.096,104.699,137.25,105.299z M137.281,74.105V62.669c2.84-0.989,5.258-2.085,7.167-3.287v9.885
			C144.445,70.612,141.928,72.361,137.281,74.105z"/>
	</g>
	<g>
		<path fill="#FFFFFF" d="M146.641,50c-0.237-4.087-5.099-7.281-14.82-9.718c0.326-0.716,0.51-1.461,0.513-2.236V21.333h-0.041
			C131.438,7.411,74.386,7,67.833,7C61.28,7,4.229,7.411,3.374,21.333H3.333v0.311l0,0l0,0v16.409
			c0.012,4.539,5.87,8.091,14.584,10.736c-0.119,0.396-0.19,0.8-0.215,1.211h-0.036v0.311l0,0l0,0v16.38
			c-9.388,2.418-14.078,5.567-14.31,9.586H3.333v0.311l0,0l0,0v16.409c0.007,3.161,2.857,5.842,7.52,8.075
			c-0.176,0.484-0.287,0.979-0.317,1.485H10.5v0.311l0,0l0,0v16.409c0.019,7.946,17.909,12.879,37.787,15.183
			c0.146,0.027,0.28,0.088,0.435,0.088c0.045,0,0.083-0.024,0.129-0.026c3.832,0.432,7.726,0.769,11.579,1.011
			c0.081,0.009,0.153,0.047,0.236,0.047c0.046,0,0.082-0.023,0.125-0.025C65.683,135.85,70.497,136,75,136
			c4.504,0,9.316-0.15,14.209-0.449c0.043,0.003,0.081,0.026,0.124,0.026c0.084,0,0.155-0.04,0.236-0.048
			c3.854-0.24,7.748-0.576,11.579-1.011c0.045,0,0.084,0.024,0.13,0.024c0.154,0,0.289-0.061,0.434-0.089
			c19.879-2.303,37.767-7.238,37.788-15.186v-16.714h-0.038c-0.168-2.928-2.664-5.372-7.595-7.415
			c0.301-0.689,0.466-1.406,0.466-2.149V77.376c8.576-2.637,14.321-6.165,14.334-10.663V50H146.641z M127.298,93.768l-0.815,0.714
			c-1.254,1.106-3.344,2.222-6.094,3.297V86.388c2.841-0.988,5.258-2.085,7.166-3.288v9.886
			C127.555,93.231,127.465,93.494,127.298,93.768z M73.867,104.868c-0.349,0.009-0.7,0.014-1.051,0.021
			c-0.853,0.017-1.727,0.021-2.592,0.028V92.985c0.657-0.007,1.314-0.017,1.971-0.028c0.126-0.002,0.253-0.005,0.38-0.008
			c2.406-0.044,4.811-0.119,7.204-0.229v11.928c-0.512,0.026-1.024,0.05-1.543,0.071C76.799,104.785,75.346,104.832,73.867,104.868z
			 M63.435,104.901c-1.094-0.02-2.184-0.045-3.265-0.079c-0.134-0.004-0.268-0.009-0.402-0.014c-1.302-0.043-2.594-0.098-3.877-0.16
			V92.723c2.394,0.112,4.799,0.187,7.205,0.229c0.126,0.003,0.253,0.005,0.378,0.008c0.657,0.012,1.313,0.021,1.971,0.028v11.94
			c-0.463-0.006-0.927-0.006-1.388-0.013C63.846,104.91,63.643,104.904,63.435,104.901z M20.287,99.455
			c-0.079-0.024-0.153-0.046-0.231-0.067v-11.54c2.231,0.602,4.629,1.151,7.167,1.65v11.66c-2.193-0.466-4.216-0.956-6.059-1.457
			C20.873,99.617,20.571,99.538,20.287,99.455z M70.64,119.236c0.657,0.013,1.313,0.022,1.971,0.029v11.942
			c-3.301-0.031-6.488-0.127-9.556-0.277v-11.928c2.394,0.112,4.8,0.187,7.205,0.229C70.387,119.232,70.513,119.235,70.64,119.236z
			 M79.739,119.23c2.406-0.046,4.812-0.12,7.205-0.229v11.928c-3.067,0.149-6.254,0.245-9.556,0.276v-11.941
			c0.656-0.008,1.314-0.017,1.971-0.028C79.486,119.235,79.612,119.232,79.739,119.23z M98.889,118.15v11.863
			c-2.296,0.241-4.685,0.453-7.166,0.628v-11.913C94.145,118.57,96.538,118.377,98.889,118.15z M103.667,117.635
			c2.463-0.297,4.854-0.633,7.166-1.008v11.729c-2.25,0.396-4.641,0.762-7.166,1.095V117.635z M115.61,115.773
			c2.537-0.499,4.936-1.049,7.167-1.65v11.54c-2.129,0.614-4.524,1.209-7.167,1.771V115.773z M34.389,115.773v11.66
			c-2.642-0.562-5.038-1.156-7.167-1.771v-11.54C29.453,114.725,31.852,115.276,34.389,115.773z M39.167,116.628
			c2.312,0.376,4.704,0.713,7.167,1.009v11.815c-2.525-0.332-4.916-0.697-7.167-1.094V116.628z M51.111,118.15
			c2.351,0.227,4.745,0.42,7.167,0.581v11.913c-2.482-0.175-4.872-0.388-7.167-0.629V118.15z M45.184,103.865
			c-0.244-0.024-0.485-0.051-0.726-0.074c-0.172-0.017-0.342-0.038-0.514-0.055V91.875c2.351,0.227,4.745,0.42,7.167,0.581v11.903
			C49.104,104.216,47.122,104.054,45.184,103.865z M39.167,91.356v11.815c-2.525-0.331-4.917-0.697-7.167-1.094V90.349
			C34.312,90.724,36.703,91.062,39.167,91.356z M86.146,104.246c-0.524,0.041-1.055,0.082-1.59,0.12V92.453
			c2.422-0.16,4.815-0.352,7.167-0.581v11.864c-1.477,0.154-2.986,0.301-4.537,0.427C86.839,104.194,86.492,104.221,86.146,104.246z
			 M96.5,103.172V91.356c2.463-0.297,4.854-0.633,7.167-1.008v11.729C101.416,102.475,99.025,102.842,96.5,103.172z M108.444,89.495
			c2.536-0.499,4.936-1.049,7.166-1.65v11.541c-2.128,0.613-4.523,1.208-7.166,1.77V89.495z M75.775,78.582
			c-1.795-0.044-3.552-0.113-5.276-0.198c-0.093-0.004-0.187-0.009-0.277-0.011V66.445c2.394,0.112,4.799,0.186,7.205,0.229
			c0.127,0.002,0.254,0.005,0.378,0.007c0.656,0.012,1.313,0.021,1.971,0.028v11.928c-1.163-0.012-2.337-0.017-3.471-0.043
			C76.13,78.59,75.95,78.588,75.775,78.582z M20.056,44.443V32.902c2.231,0.603,4.629,1.152,7.167,1.651v11.66
			c-0.294-0.062-0.597-0.124-0.884-0.186c-1.271-0.279-2.511-0.571-3.695-0.879C21.739,44.917,20.882,44.68,20.056,44.443z
			 M63.474,38.015c0.657,0.012,1.313,0.022,1.971,0.029v11.928c-3.215-0.031-6.412-0.115-9.556-0.272V37.781
			c2.394,0.112,4.8,0.187,7.206,0.229C63.22,38.01,63.347,38.013,63.474,38.015z M72.573,38.008c2.406-0.045,4.812-0.12,7.205-0.229
			v11.918c-0.405,0.019-0.795,0.048-1.204,0.067c-0.033,0.002-0.066,0.002-0.102,0.004c-1.604,0.072-3.237,0.125-4.893,0.163
			c-0.258,0.007-0.516,0.01-0.774,0.017c-0.851,0.017-1.72,0.019-2.583,0.029V38.043c0.657-0.007,1.314-0.017,1.971-0.029
			C72.319,38.013,72.446,38.01,72.573,38.008z M127.009,39.207l-0.067-0.015l-0.869,0.676c-1.262,0.982-3.199,1.976-5.684,2.936
			V31.441c2.841-0.989,5.258-2.085,7.166-3.288v9.886C127.555,38.402,127.364,38.794,127.009,39.207z M96.5,48.213V36.412
			c2.463-0.296,4.854-0.633,7.167-1.008v11.71C101.402,47.515,99.018,47.884,96.5,48.213z M108.444,46.194V34.553
			c2.536-0.499,4.936-1.048,7.166-1.651v11.515C113.471,45.041,111.06,45.635,108.444,46.194z M91.723,36.928v11.849
			c-2.308,0.244-4.696,0.457-7.167,0.633V37.509C86.978,37.348,89.371,37.155,91.723,36.928z M43.944,48.782V36.928
			c2.351,0.227,4.745,0.42,7.167,0.581V49.4C48.679,49.226,46.281,49.027,43.944,48.782z M39.167,36.412v11.804
			c-0.473-0.062-0.965-0.113-1.434-0.177c-0.306-0.043-0.597-0.088-0.898-0.131c-1.381-0.198-2.73-0.411-4.054-0.633
			c-0.265-0.045-0.521-0.093-0.781-0.138V35.406C34.312,35.779,36.703,36.118,39.167,36.412z M64.852,78.043
			c-0.322-0.023-0.647-0.048-0.967-0.072c-1.529-0.119-3.021-0.25-4.479-0.396c-0.313-0.03-0.626-0.063-0.937-0.095
			c-0.064-0.007-0.126-0.017-0.191-0.021V65.595c2.351,0.227,4.744,0.421,7.167,0.581v11.906
			C65.25,78.067,65.045,78.058,64.852,78.043z M49.068,76.259c-0.946-0.15-1.835-0.312-2.735-0.47V64.073
			c2.312,0.375,4.704,0.712,7.167,1.008v11.815c-1.462-0.193-2.894-0.395-4.267-0.609C49.178,76.276,49.123,76.266,49.068,76.259z
			 M41.555,63.217v11.642c-2.639-0.567-5.033-1.168-7.167-1.794V61.567C36.62,62.169,39.018,62.721,41.555,63.217z M29.611,60.107
			v11.35c-3.755-1.45-6.178-2.931-6.966-4.25l-0.16-0.267c-0.015-0.074-0.038-0.153-0.041-0.227V56.82
			C24.353,58.022,26.771,59.119,29.611,60.107z M86.906,66.674c2.406-0.045,4.812-0.119,7.205-0.229v11.916
			c-3.14,0.154-6.33,0.24-9.556,0.274V66.71c0.656-0.007,1.313-0.017,1.97-0.028C86.652,66.679,86.779,66.677,86.906,66.674z
			 M117.777,75.841c-1.048,0.182-2.106,0.361-3.194,0.526c-0.623,0.094-1.261,0.185-1.901,0.275
			c-0.604,0.086-1.232,0.161-1.846,0.239V65.079c2.463-0.297,4.854-0.633,7.166-1.008V75.8
			C117.926,75.814,117.852,75.828,117.777,75.841z M101.603,77.88c-0.891,0.074-1.812,0.123-2.714,0.188V66.175
			c2.423-0.16,4.816-0.351,7.166-0.581v11.852c-1.388,0.146-2.773,0.291-4.199,0.411C101.77,77.863,101.688,77.874,101.603,77.88z
			 M128.903,73.402c-1.19,0.333-2.449,0.642-3.734,0.946c-0.595,0.139-1.201,0.278-1.823,0.411
			c-0.184,0.041-0.379,0.076-0.565,0.117V63.22c2.537-0.499,4.936-1.049,7.167-1.651V73.11
			C129.603,73.206,129.256,73.304,128.903,73.402z M141.863,50.155c-0.221,1.622-3.897,3.779-10.459,5.808l0,0
			c-8.453,2.611-21.678,5.002-38.438,5.743c-0.856,0.036-1.712,0.072-2.587,0.1c-0.714,0.024-1.431,0.045-2.159,0.064
			c-1.978,0.043-3.984,0.074-6.053,0.074c-2.069,0-4.076-0.031-6.054-0.077c-0.727-0.017-1.443-0.04-2.16-0.064
			c-0.877-0.026-1.732-0.064-2.587-0.101c-16.76-0.741-29.988-3.132-38.437-5.743l0,0c-6.51-2.011-10.179-4.152-10.452-5.767
			c0.012-0.045,0.012-0.083,0.041-0.141c0.162,0.041,0.344,0.074,0.508,0.115c0.935,0.222,1.892,0.437,2.867,0.642
			c4.747,1.023,10.007,1.861,15.611,2.501c0.019,0,0.033,0.009,0.05,0.009c0.005,0,0.01-0.002,0.012-0.002
			c3.817,0.435,7.778,0.776,11.844,1.018c0.031,0,0.057,0.017,0.088,0.017c0.017,0,0.029-0.009,0.045-0.009
			c2.926,0.172,5.891,0.298,8.891,0.365c1.837,0.045,3.641,0.069,5.396,0.069c1.254,0,2.54-0.014,3.837-0.038
			c17.357-0.268,33.443-2.332,44.639-5.531c0.517-0.146,1.021-0.296,1.517-0.446c0.304-0.093,0.614-0.184,0.908-0.277
			c0.865-0.277,1.694-0.562,2.494-0.857c0.138-0.052,0.27-0.105,0.407-0.158c0.677-0.256,1.327-0.521,1.947-0.791
			c0.18-0.079,0.363-0.155,0.538-0.234c0.662-0.298,1.302-0.604,1.895-0.922c0.267-0.142,0.499-0.287,0.75-0.43
			c0.286-0.165,0.573-0.332,0.839-0.502c0.15-0.095,0.33-0.186,0.473-0.282C138.771,46.629,141.591,49.167,141.863,50.155z
			 M67.833,11.778c39.391,0,59.313,6.202,59.687,9.761c-0.289,1.615-3.956,3.749-10.449,5.755l0,0
			c-8.451,2.611-21.676,5.002-38.438,5.742c-0.857,0.036-1.712,0.072-2.586,0.101c-0.715,0.024-1.432,0.045-2.161,0.064
			c-1.978,0.045-3.984,0.077-6.053,0.077s-4.075-0.031-6.053-0.077c-0.727-0.017-1.443-0.041-2.16-0.064
			c-0.877-0.026-1.732-0.064-2.587-0.101c-16.76-0.74-29.987-3.131-38.437-5.742l0,0c-6.495-2.007-10.16-4.14-10.449-5.755
			C8.52,17.979,28.443,11.778,67.833,11.778z M8.111,38.046v-9.893c1.909,1.202,4.326,2.298,7.167,3.288v11.438
			C10.631,41.137,8.116,39.391,8.111,38.046z M19.683,71.106c0.036,0.039,0.091,0.072,0.126,0.11
			c3.271,3.301,10.043,5.896,18.474,7.831c0.193,0.045,0.399,0.088,0.595,0.133c0.619,0.14,1.247,0.275,1.882,0.407
			c7.742,1.647,16.985,2.84,27.054,3.43c0.007,0,0.012,0.003,0.017,0.003c0.005,0,0.007-0.003,0.01-0.003
			c3.234,0.189,6.543,0.32,9.921,0.378c1.495,0.03,2.967,0.05,4.405,0.05c1.647,0,3.339-0.02,5.059-0.06
			c3.125-0.064,6.205-0.193,9.24-0.371c0.012,0,0.022,0.008,0.034,0.008c0.021,0,0.038-0.013,0.06-0.013
			c10.096-0.595,19.567-1.798,27.577-3.529c-1.734,0.907-4.108,1.846-7.066,2.761l0,0c-8.922,2.757-23.172,5.268-41.282,5.851
			c-0.537,0.017-1.067,0.036-1.612,0.05c-0.585,0.016-1.181,0.024-1.775,0.036c-1.502,0.023-3.015,0.046-4.567,0.046
			c-2.069,0-4.075-0.031-6.053-0.077c-0.727-0.017-1.443-0.041-2.16-0.064c-0.877-0.026-1.732-0.064-2.587-0.101
			c-16.76-0.74-29.987-3.132-38.437-5.743l0,0c-6.569-2.03-10.246-4.189-10.458-5.812C8.402,75.527,10.817,73.28,19.683,71.106z
			 M8.111,92.99v-9.892c1.909,1.201,4.326,2.298,7.167,3.287v11.393l-1.364-0.531l-0.029,0.029
			C10.134,95.721,8.116,94.194,8.111,92.99z M15.278,119.269v-9.893c1.909,1.202,4.326,2.299,7.167,3.287v11.438
			C17.798,122.359,15.282,120.613,15.278,119.269z M127.555,124.101v-11.435c2.842-0.989,5.259-2.086,7.167-3.288v9.886
			C134.72,120.608,132.201,122.357,127.555,124.101z M134.69,102.739c-0.261,1.617-3.93,3.763-10.453,5.779l0,0
			c-8.452,2.611-21.677,5.002-38.437,5.742c-0.858,0.036-1.714,0.072-2.589,0.101c-0.714,0.023-1.43,0.046-2.159,0.064
			c-1.977,0.043-3.983,0.074-6.053,0.074s-4.078-0.031-6.058-0.076c-0.719-0.017-1.429-0.041-2.139-0.064
			c-0.881-0.029-1.741-0.064-2.604-0.101c-16.761-0.741-29.985-3.132-38.438-5.743l0,0c-6.318-1.951-9.969-4.024-10.427-5.626
			c0.712,0.249,1.45,0.49,2.208,0.727c0.076,0.023,0.153,0.048,0.229,0.069c0.645,0.198,1.305,0.39,1.98,0.576
			c0.255,0.071,0.514,0.144,0.774,0.212c0.382,0.103,0.774,0.201,1.166,0.301c8.7,2.229,19.806,3.808,31.796,4.518
			c0.005,0,0.007,0.003,0.012,0.003c0.002,0,0.004-0.003,0.007-0.003c3.703,0.22,7.484,0.355,11.307,0.402
			c1.017,0.019,2.028,0.027,3.019,0.027c1.316,0,2.664-0.017,4.028-0.04c3.485-0.057,6.926-0.187,10.289-0.387
			c0.008,0,0.013,0.005,0.02,0.005c0.012,0,0.019-0.008,0.031-0.008c4.097-0.245,8.062-0.597,11.872-1.034
			c0.015,0,0.027,0.007,0.041,0.007c0.053,0,0.095-0.025,0.148-0.03c4.243-0.49,8.265-1.092,11.999-1.793
			c0.77-0.141,1.526-0.286,2.276-0.436c0.167-0.034,0.335-0.068,0.502-0.104c7.054-1.447,13.16-3.323,17.351-5.647
			c0.229-0.124,0.444-0.253,0.661-0.38c0.266-0.157,0.52-0.317,0.765-0.479c0.229-0.148,0.495-0.292,0.705-0.442
			C133.236,100.635,134.536,102.14,134.69,102.739z M134.722,71.545V60.11c2.84-0.989,5.258-2.085,7.167-3.287v9.885
			C141.886,68.053,139.368,69.802,134.722,71.545z"/>
	</g>
</g>
</svg>
