<?xml version="1.0" encoding="utf-8"?>
<!-- Generator: Adobe Illustrator 16.0.0, SVG Export Plug-In . SVG Version: 6.00 Build 0)  -->
<!DOCTYPE svg PUBLIC "-//W3C//DTD SVG 1.1//EN" "http://www.w3.org/Graphics/SVG/1.1/DTD/svg11.dtd">
<svg version="1.1" id="Capa_1" xmlns="http://www.w3.org/2000/svg" xmlns:xlink="http://www.w3.org/1999/xlink" x="0px" y="0px"
	 width="960px" height="560px" viewBox="0 0 960 560" enable-background="new 0 0 960 560" xml:space="preserve">
<path fill="#FFFFFF" d="M759.897,196c-0.924-15.969-19.917-28.448-57.904-37.968c1.278-2.8,1.997-5.712,2.007-8.736V84h-0.158
	C700.5,29.605,477.602,28,452,28s-248.5,1.605-251.841,56H200v1.213l0,0l0,0v64.111c0.047,17.733,22.932,31.612,56.98,41.944
	c-0.467,1.549-0.747,3.126-0.84,4.732H256v1.213l0,0l0,0v63.999c-36.68,9.445-55.001,21.747-55.907,37.454H200v1.214l0,0l0,0v64.11
	c0.028,12.349,11.163,22.82,29.381,31.547c-0.691,1.895-1.12,3.827-1.241,5.806H228v1.213l0,0l0,0v64.111
	c0.075,31.042,69.972,50.315,147.635,59.313c0.569,0.111,1.092,0.345,1.699,0.345c0.177,0,0.327-0.093,0.504-0.103
	c14.971,1.689,30.184,3.005,45.239,3.948c0.317,0.037,0.598,0.187,0.924,0.187c0.178,0,0.317-0.094,0.485-0.103
	C443.6,531.412,462.406,532,480,532s36.4-0.588,55.515-1.755c0.168,0.01,0.317,0.103,0.485,0.103c0.326,0,0.606-0.158,0.924-0.187
	c15.055-0.942,30.269-2.249,45.238-3.948c0.178,0,0.327,0.094,0.505,0.094c0.606,0,1.129-0.233,1.698-0.346
	c77.663-8.997,147.551-28.279,147.635-59.332v-65.296h-0.149c-0.653-11.442-10.406-20.99-29.671-28.971
	c1.176-2.697,1.82-5.497,1.82-8.399V302.96c33.507-10.304,55.953-24.089,56-41.664V196H759.897z M684.325,366.996l-3.183,2.791
	c-4.9,4.321-13.066,8.68-23.81,12.88v-44.502c11.098-3.863,20.543-8.147,28-12.843v38.622
	C685.333,364.905,684.979,365.932,684.325,366.996z M475.576,410.368c-1.363,0.037-2.734,0.056-4.106,0.084
	c-3.332,0.065-6.748,0.084-10.127,0.112v-46.62c2.566-0.028,5.133-0.065,7.7-0.112c0.494-0.01,0.989-0.019,1.483-0.028
	c9.399-0.177,18.798-0.467,28.149-0.896v46.602c-1.997,0.103-4.004,0.195-6.029,0.279
	C487.028,410.041,481.354,410.228,475.576,410.368z M434.817,410.499c-4.274-0.075-8.53-0.178-12.759-0.309
	c-0.522-0.019-1.045-0.037-1.568-0.056c-5.086-0.168-10.136-0.383-15.147-0.625v-46.593c9.352,0.438,18.751,0.729,28.149,0.896
	c0.494,0.009,0.989,0.019,1.475,0.027c2.566,0.047,5.133,0.084,7.7,0.112v46.648c-1.811-0.019-3.622-0.019-5.423-0.047
	C436.423,410.536,435.629,410.508,434.817,410.499z M266.239,389.219c-0.308-0.094-0.598-0.178-0.905-0.262v-45.089
	c8.717,2.352,18.088,4.498,28,6.449v45.556c-8.568-1.819-16.474-3.733-23.669-5.693
	C268.525,389.854,267.349,389.545,266.239,389.219z M462.967,466.508c2.566,0.047,5.133,0.084,7.7,0.112v46.657
	c-12.899-0.121-25.35-0.495-37.334-1.083v-46.601c9.353,0.438,18.751,0.728,28.149,0.896
	C461.978,466.489,462.472,466.499,462.967,466.508z M498.518,466.48c9.398-0.178,18.797-0.467,28.149-0.896v46.602
	c-11.984,0.588-24.435,0.961-37.334,1.082V466.61c2.567-0.027,5.134-0.065,7.7-0.111
	C497.528,466.499,498.022,466.489,498.518,466.48z M573.333,462.262v46.349c-8.969,0.943-18.303,1.773-28,2.455V464.52
	C554.797,463.904,564.149,463.148,573.333,462.262z M592,460.245c9.623-1.157,18.965-2.473,28-3.938v45.826
	c-8.792,1.55-18.135,2.978-28,4.275V460.245z M638.667,452.975c9.911-1.95,19.282-4.098,28-6.449v45.089
	c-8.316,2.399-17.678,4.723-28,6.916V452.975z M321.333,452.975v45.556c-10.323-2.193-19.684-4.517-28-6.916v-45.089
	C302.051,448.877,311.421,451.033,321.333,452.975z M340,456.316c9.035,1.465,18.377,2.781,28,3.938v46.162
	c-9.865-1.297-19.208-2.725-28-4.274V456.316z M386.667,462.262c9.184,0.887,18.537,1.643,28,2.268v46.545
	c-9.697-0.681-19.031-1.512-28-2.454V462.262z M363.511,406.448c-0.952-0.094-1.895-0.196-2.837-0.29
	c-0.672-0.064-1.334-0.148-2.007-0.214v-46.341c9.184,0.887,18.536,1.644,28,2.269v46.508
	C378.827,407.82,371.08,407.186,363.511,406.448z M340,357.579v46.162c-9.865-1.297-19.208-2.726-28-4.274V353.64
	C321.035,355.105,330.377,356.431,340,357.579z M523.549,407.941c-2.053,0.158-4.125,0.317-6.216,0.467v-46.546
	c9.464-0.625,18.816-1.372,28-2.268v46.35c-5.768,0.606-11.666,1.176-17.724,1.67C526.256,407.736,524.902,407.839,523.549,407.941z
	 M564,403.741v-46.162c9.623-1.158,18.965-2.474,28-3.939v45.827C583.208,401.016,573.865,402.453,564,403.741z M610.667,350.308
	c9.911-1.95,19.282-4.097,28-6.449v45.09c-8.316,2.398-17.678,4.723-28,6.916V350.308z M483.033,307.673
	c-7.019-0.177-13.879-0.447-20.617-0.774c-0.364-0.019-0.729-0.037-1.083-0.047V260.25c9.353,0.439,18.751,0.728,28.149,0.896
	c0.495,0.009,0.989,0.019,1.475,0.028c2.567,0.046,5.134,0.084,7.7,0.112v46.601c-4.545-0.046-9.128-0.065-13.562-0.168
	C484.415,307.701,483.715,307.692,483.033,307.673z M265.333,174.291v-45.089c8.717,2.352,18.088,4.499,28,6.45v45.556
	c-1.148-0.243-2.333-0.485-3.454-0.728c-4.965-1.092-9.809-2.23-14.438-3.435C271.913,176.139,268.562,175.215,265.333,174.291z
	 M434.967,149.175c2.566,0.046,5.133,0.084,7.7,0.112v46.602c-12.563-0.122-25.051-0.448-37.334-1.064V148.26
	c9.353,0.439,18.751,0.728,28.149,0.896C433.978,149.156,434.472,149.166,434.967,149.175z M470.518,149.146
	c9.398-0.177,18.797-0.466,28.149-0.896v46.564c-1.587,0.075-3.108,0.187-4.704,0.262c-0.131,0.009-0.262,0.009-0.401,0.019
	c-6.263,0.28-12.646,0.485-19.115,0.635c-1.008,0.028-2.016,0.037-3.023,0.065c-3.323,0.065-6.72,0.074-10.09,0.112v-46.62
	c2.567-0.028,5.134-0.065,7.7-0.112C469.528,149.166,470.022,149.156,470.518,149.146z M683.196,153.832l-0.262-0.056l-3.397,2.642
	c-4.928,3.836-12.497,7.718-22.204,11.471v-44.399c11.098-3.864,20.543-8.148,28-12.843v38.622
	C685.333,150.687,684.587,152.217,683.196,153.832z M564,189.019v-46.106c9.623-1.157,18.965-2.474,28-3.939v45.752
	C583.152,186.293,573.837,187.73,564,189.019z M610.667,181.132V135.65c9.911-1.95,19.282-4.097,28-6.449v44.987
	C630.304,176.624,620.887,178.948,610.667,181.132z M545.333,144.928v46.293c-9.016,0.952-18.349,1.783-28,2.474v-46.499
	C526.797,146.571,536.149,145.814,545.333,144.928z M358.667,191.24v-46.312c9.184,0.887,18.536,1.643,28,2.268v46.461
	C377.166,192.976,367.795,192.201,358.667,191.24z M340,142.912v46.116c-1.848-0.243-3.771-0.438-5.6-0.69
	c-1.195-0.168-2.333-0.345-3.509-0.513c-5.395-0.775-10.668-1.605-15.839-2.474c-1.036-0.177-2.034-0.364-3.052-0.541v-45.827
	C321.035,140.438,330.377,141.764,340,142.912z M440.352,305.564c-1.26-0.094-2.529-0.188-3.779-0.28
	c-5.974-0.467-11.807-0.979-17.5-1.55c-1.223-0.121-2.445-0.252-3.659-0.373c-0.252-0.027-0.494-0.065-0.746-0.084v-46.35
	c9.184,0.887,18.536,1.643,28,2.268v46.517C441.91,305.657,441.108,305.62,440.352,305.564z M378.687,298.592
	c-3.696-0.588-7.168-1.223-10.687-1.838v-45.771c9.035,1.466,18.377,2.782,28,3.939v46.163c-5.712-0.756-11.303-1.54-16.669-2.38
	C379.116,298.657,378.901,298.62,378.687,298.592z M349.333,247.641v45.482c-10.313-2.213-19.666-4.564-28-7.01v-44.921
	C330.051,243.544,339.421,245.7,349.333,247.641z M302.667,235.489v44.343c-14.672-5.666-24.136-11.452-27.216-16.604l-0.625-1.045
	c-0.056-0.289-0.149-0.597-0.159-0.887v-38.649C282.124,227.341,291.569,231.625,302.667,235.489z M526.518,261.146
	c9.398-0.177,18.797-0.466,28.149-0.896v46.555c-12.265,0.606-24.733,0.942-37.334,1.073v-46.592c2.567-0.028,5.134-0.065,7.7-0.112
	C525.528,261.166,526.022,261.156,526.518,261.146z M647.132,296.959c-4.097,0.709-8.231,1.409-12.479,2.053
	c-2.437,0.373-4.928,0.729-7.43,1.083c-2.361,0.336-4.815,0.626-7.214,0.933v-46.115c9.622-1.157,18.965-2.474,28-3.939V296.8
	C647.711,296.855,647.421,296.912,647.132,296.959z M583.936,304.93c-3.48,0.289-7.074,0.476-10.603,0.728v-46.461
	c9.464-0.625,18.816-1.372,28-2.268v46.303c-5.423,0.569-10.836,1.139-16.407,1.605C584.59,304.864,584.271,304.901,583.936,304.93z
	 M690.598,287.43c-4.648,1.297-9.567,2.51-14.588,3.695c-2.324,0.541-4.695,1.083-7.122,1.605c-0.719,0.158-1.483,0.299-2.212,0.457
	v-45.537c9.912-1.951,19.283-4.098,28-6.45v45.09C693.332,286.664,691.979,287.047,690.598,287.43z M741.23,196.606
	c-0.858,6.337-15.223,14.766-40.861,22.689l0,0c-33.021,10.201-84.69,19.544-150.173,22.438c-3.351,0.14-6.692,0.28-10.108,0.392
	c-2.791,0.093-5.591,0.177-8.438,0.252c-7.728,0.168-15.567,0.289-23.65,0.289s-15.923-0.121-23.65-0.298
	c-2.838-0.065-5.638-0.159-8.438-0.252c-3.426-0.103-6.767-0.252-10.108-0.392c-65.482-2.894-117.161-12.236-150.173-22.438l0,0
	c-25.434-7.859-39.77-16.221-40.833-22.531c0.046-0.177,0.046-0.327,0.159-0.551c0.635,0.159,1.344,0.29,1.988,0.448
	c3.649,0.868,7.392,1.708,11.2,2.511c18.545,3.995,39.097,7.271,60.993,9.772c0.075,0,0.131,0.037,0.196,0.037
	c0.019,0,0.037-0.009,0.046-0.009c14.915,1.699,30.39,3.034,46.275,3.976c0.121,0,0.224,0.065,0.345,0.065
	c0.065,0,0.112-0.038,0.178-0.038c11.433,0.672,23.016,1.167,34.738,1.428c7.178,0.177,14.224,0.271,21.084,0.271
	c4.9,0,9.921-0.056,14.989-0.149c67.816-1.045,130.667-9.109,174.402-21.607c2.017-0.569,3.985-1.157,5.927-1.745
	c1.186-0.364,2.398-0.719,3.547-1.083c3.379-1.083,6.617-2.193,9.744-3.351c0.541-0.205,1.055-0.411,1.596-0.616
	c2.642-0.999,5.181-2.035,7.606-3.089c0.7-0.308,1.419-0.607,2.101-0.915c2.585-1.167,5.087-2.361,7.401-3.603
	c1.045-0.551,1.95-1.12,2.931-1.68c1.12-0.644,2.24-1.297,3.275-1.96c0.588-0.373,1.288-0.728,1.849-1.101
	C729.153,182.831,740.167,192.743,741.23,196.606z M452,46.667c153.897,0,231.737,24.229,233.193,38.136
	c-1.129,6.309-15.456,14.644-40.824,22.484l0,0c-33.021,10.201-84.69,19.544-150.173,22.438c-3.351,0.14-6.692,0.28-10.108,0.392
	c-2.791,0.093-5.591,0.177-8.438,0.252c-7.728,0.177-15.567,0.298-23.65,0.298s-15.923-0.121-23.65-0.298
	c-2.838-0.065-5.638-0.159-8.438-0.252c-3.426-0.103-6.767-0.252-10.108-0.392c-65.482-2.894-117.161-12.236-150.173-22.438l0,0
	c-25.377-7.84-39.695-16.175-40.824-22.484C220.263,70.896,298.103,46.667,452,46.667z M218.667,149.296v-38.649
	c7.458,4.695,16.903,8.979,28,12.843v44.688C228.513,161.374,218.686,154.551,218.667,149.296z M263.877,278.46
	c0.14,0.149,0.354,0.28,0.495,0.429c12.777,12.899,39.237,23.035,72.175,30.595c0.756,0.177,1.559,0.345,2.324,0.522
	c2.417,0.541,4.872,1.073,7.354,1.587c30.25,6.439,66.36,11.097,105.701,13.402c0.027,0,0.046,0.009,0.064,0.009
	c0.02,0,0.028-0.009,0.038-0.009c12.637,0.737,25.563,1.251,38.761,1.475c5.843,0.121,11.592,0.196,17.211,0.196
	c6.439,0,13.048-0.075,19.768-0.233c12.208-0.252,24.239-0.756,36.102-1.447c0.047,0,0.084,0.028,0.131,0.028
	c0.084,0,0.149-0.047,0.233-0.047c39.442-2.324,76.449-7.027,107.744-13.795c-6.776,3.547-16.054,7.215-27.608,10.79l0,0
	c-34.859,10.771-90.533,20.58-161.289,22.857c-2.1,0.065-4.172,0.14-6.3,0.195c-2.287,0.057-4.611,0.094-6.935,0.141
	c-5.871,0.093-11.779,0.177-17.846,0.177c-8.083,0-15.923-0.121-23.65-0.299c-2.838-0.064-5.638-0.158-8.438-0.252
	c-3.426-0.103-6.767-0.252-10.108-0.392c-65.482-2.894-117.161-12.236-150.173-22.438l0,0
	c-25.667-7.934-40.031-16.371-40.861-22.708C219.805,295.736,229.241,286.953,263.877,278.46z M218.667,363.963v-38.649
	c7.458,4.694,16.903,8.979,28,12.843v44.511l-5.329-2.072l-0.112,0.112C226.572,374.631,218.686,368.667,218.667,363.963z
	 M246.667,466.629V427.98c7.458,4.694,16.903,8.979,28,12.842v44.688C256.513,478.707,246.686,471.884,246.667,466.629z
	 M685.333,485.511v-44.679c11.098-3.864,20.543-8.148,28-12.843v38.621C713.324,471.865,703.486,478.697,685.333,485.511z
	 M713.212,402.052c-1.018,6.319-15.354,14.7-40.843,22.577l0,0c-33.021,10.202-84.69,19.544-150.173,22.438
	c-3.351,0.141-6.692,0.28-10.108,0.393c-2.791,0.093-5.591,0.177-8.438,0.252C495.923,447.879,488.083,448,480,448
	s-15.932-0.121-23.669-0.299c-2.81-0.065-5.582-0.158-8.354-0.252c-3.444-0.112-6.804-0.252-10.174-0.392
	c-65.482-2.894-117.152-12.236-150.173-22.438l0,0c-24.687-7.626-38.948-15.727-40.74-21.98c2.781,0.971,5.666,1.914,8.624,2.838
	c0.299,0.093,0.597,0.187,0.896,0.271c2.52,0.774,5.096,1.521,7.737,2.249c0.999,0.28,2.007,0.561,3.024,0.831
	c1.494,0.401,3.024,0.784,4.555,1.176c33.992,8.708,77.383,14.877,124.227,17.649c0.019,0,0.028,0.01,0.047,0.01
	c0.01,0,0.019-0.01,0.028-0.01c14.467,0.858,29.241,1.391,44.175,1.568c3.976,0.074,7.924,0.111,11.797,0.111
	c5.143,0,10.406-0.065,15.736-0.158c13.617-0.224,27.057-0.729,40.198-1.512c0.028,0,0.047,0.019,0.075,0.019
	c0.046,0,0.074-0.028,0.121-0.028c16.007-0.961,31.5-2.333,46.387-4.041c0.056,0,0.103,0.027,0.158,0.027
	c0.205,0,0.373-0.103,0.579-0.121c16.576-1.913,32.293-4.266,46.881-7c3.006-0.551,5.964-1.12,8.895-1.708
	c0.653-0.131,1.307-0.261,1.96-0.401c27.562-5.656,51.418-12.982,67.788-22.063c0.896-0.485,1.736-0.989,2.586-1.484
	c1.036-0.616,2.025-1.241,2.986-1.876c0.896-0.579,1.932-1.139,2.753-1.727C707.528,393.829,712.605,399.709,713.212,402.052z
	 M713.333,280.177v-44.679c11.098-3.864,20.543-8.148,28-12.842v38.621C741.324,266.532,731.486,273.364,713.333,280.177z"/>
</svg>
