<?xml version="1.0" encoding="utf-8"?>
<!-- Generator: Adobe Illustrator 16.0.0, SVG Export Plug-In . SVG Version: 6.00 Build 0)  -->
<!DOCTYPE svg PUBLIC "-//W3C//DTD SVG 1.1//EN" "http://www.w3.org/Graphics/SVG/1.1/DTD/svg11.dtd">
<svg version="1.1" id="Layer_1" xmlns="http://www.w3.org/2000/svg" xmlns:xlink="http://www.w3.org/1999/xlink" x="0px" y="0px"
	 width="200px" height="200px" viewBox="0 0 200 200" enable-background="new 0 0 200 200" xml:space="preserve">
<g>
	<path fill="#FFFDFD" d="M65.356,85.917c-3.623-15-15.557-19.015-26.363-16.404C22.476,73.506,15.139,85.015,17.75,95.82
		c1.316,5.444,6.106,6.086,6.386,7.241c0.303,1.255-0.216,1.853-1.465,2.156c-4.734,1.141-15.276-1.032-16.98-8.09
		C2.472,83.818,18.923,68.978,37.942,64.379c13.568-3.277,34.599,0.803,39.629,21.611c4.354,18.039-3.338,38.997-20.04,43.03
		c-7.675,1.854-15.574,0.459-22.892-1.271c-3.407,5.454-8.542,8.868-14.79,10.381c-7.322,1.769-15.234-0.479-16.748-6.729
		c-1.594-6.608,3.707-12.05,8.883-13.301c5.266-1.273,10.701-0.314,16.129,1.018c0.266-0.819,0.436-1.713,0.598-2.599
		c2.024-10.794,2.858-34.721,5.958-37.924c3.594-3.894,7.953-5.797,10.005-6.295c1.167-0.28,1.558,0.191,1.73,0.901
		c0.173,0.718-2.103,4.198-3.104,9.449c-0.552,2.781-1.9,21.062-4.479,34.253c-0.346,1.691-0.825,3.224-1.305,4.758
		c4.717,1.133,9.212,1.744,13.496,0.715C63.871,119.265,69.069,101.28,65.356,85.917z M10.596,130.342
		c0.583,2.412,3.378,3.435,6.24,2.749c3.929-0.952,6.868-3.27,9.038-7.576c-4.492-0.992-8.408-1.557-11.622-0.778
		C11.482,125.405,10.013,127.935,10.596,130.342z"/>
	<path fill="#FFFDFD" d="M118.386,114.31c-4.911,1.188-9.376-0.473-11.212-5.32c0,0-4.059,9.011-10.845,10.653
		c-4.819,1.164-9.86-1.686-11.173-7.13c-3.107-12.86,4.306-29.111,14.134-31.486c7.227-1.745,10.74,1.843,10.74,1.843
		c2.681-0.646,6.604-0.457,7.358,2.664c0.649,2.685-2.072,14.112-0.604,20.188c0.343,1.425,1.588,2.264,3.102,1.892
		c4.823-1.16,7.704-9.983,7.704-9.983s0.415-1.425,1.478-1.681c0.989-0.239,2.073,0.35,2.307,1.331
		c0.196,0.803-0.281,2.336-0.281,2.336S127.229,112.179,118.386,114.31z M102.409,85.753c-5.177,1.252-8.539,15.106-6.723,22.609
		c0.625,2.586,1.686,3.848,3.559,3.39c4.287-1.036,8.975-16.06,7.313-22.933C105.931,86.229,104.197,85.319,102.409,85.753z"/>
	<path fill="#FFFDFD" d="M155.002,99.126c4.822-1.164,7.704-9.986,7.704-9.986s0.41-1.421,1.483-1.682
		c0.979-0.236,2.067,0.351,2.301,1.333c0.197,0.805-0.281,2.336-0.281,2.336s-3.865,12.564-12.706,14.701
		c-6.783,1.638-12.314-1.281-13.499-6.194c-1.897-7.857,2.238-15.375,1.567-18.145c-0.429-1.786-5.873-0.847-5.873-0.847
		c-1.304,9.481-3.378,15.75-4.583,18.973c-0.182,0.42-0.57,1.551-1.645,1.815c-0.893,0.215-2.112-0.528-2.329-1.426
		c-0.19-0.804,0.304-1.87,0.462-2.377c1.048-2.711,3.372-8.757,3.931-17.779c0,0-3.467-1.424-4.548-5.89
		c-0.883-3.66,1.441-7.345,3.583-7.859c2.505-0.604,6.232,1.517,6.663,3.303c0.558,2.323-0.257,4.029,0.088,5.46
		c0.305,1.249,2.063,1.485,4.202,0.969c4.026-0.972,4.992-2.432,7.134-2.952c2.144-0.516,4.138,1.079,4.7,3.402
		c0.968,4.02-3.807,13.207-2.057,20.439C151.797,98.77,153.22,99.555,155.002,99.126z"/>
	<path fill="#FFFDFD" d="M191.225,85.841c0,0,0.771-1.512,1.662-1.728c1.073-0.261,2.069,0.351,2.308,1.333
		c0.197,0.803-0.644,2.427-0.644,2.427s-4.062,9.012-13.706,11.346c-9.017,2.176-16.875-1.786-18.709-9.376
		c-3.301-13.661,5.859-25.423,13.626-27.297c5.449-1.318,10.948,2.267,12.089,7.002c1.038,4.286-0.111,14.011-11.36,16.73
		c-0.979,0.239-3.523,0.287-3.523,0.287c1.273,5.269,5.588,7.061,9.872,6.024C188.284,91.274,190.256,87.299,191.225,85.841z
		 M181.228,67.929c-0.281-1.154-1.057-1.628-2.041-1.392c-4.906,1.187-7.773,11.617-6.656,16.255
		C179.049,81.22,182.132,71.686,181.228,67.929z"/>
</g>
</svg>
