<?xml version="1.0" encoding="utf-8"?>
<!-- Generator: Adobe Illustrator 16.0.0, SVG Export Plug-In . SVG Version: 6.00 Build 0)  -->
<!DOCTYPE svg PUBLIC "-//W3C//DTD SVG 1.1//EN" "http://www.w3.org/Graphics/SVG/1.1/DTD/svg11.dtd">
<svg version="1.1" id="Layer_1" xmlns="http://www.w3.org/2000/svg" xmlns:xlink="http://www.w3.org/1999/xlink" x="0px" y="0px"
	 width="200px" height="200px" viewBox="0 0 200 200" enable-background="new 0 0 200 200" xml:space="preserve">
<path fill="#FFFFFF" d="M98.996,11.5C50.678,11.5,11.5,50.678,11.5,98.996S50.678,186.5,98.996,186.5S186.5,147.314,186.5,98.996
	S147.314,11.5,98.996,11.5z M117.211,147.107c-4.503,1.777-8.089,3.126-10.777,4.06c-2.682,0.933-5.8,1.399-9.349,1.399
	c-5.452,0-9.696-1.333-12.718-3.992s-4.526-6.029-4.526-10.126c0-1.593,0.111-3.223,0.333-4.882
	c0.229-1.659,0.592-3.526,1.088-5.622l5.637-19.911c0.497-1.911,0.926-3.726,1.267-5.415c0.34-1.703,0.503-3.266,0.503-4.688
	c0-2.534-0.526-4.312-1.57-5.311c-1.059-1-3.052-1.489-6.022-1.489c-1.452,0-2.949,0.215-4.481,0.667
	c-1.519,0.466-2.837,0.889-3.919,1.304l1.489-6.133c3.688-1.504,7.222-2.792,10.592-3.859c3.37-1.082,6.555-1.615,9.556-1.615
	c5.415,0,9.592,1.318,12.533,3.926c2.927,2.614,4.4,6.015,4.4,10.192c0,0.866-0.104,2.393-0.304,4.569
	c-0.2,2.187-0.578,4.179-1.126,6.008l-5.607,19.853c-0.459,1.592-0.867,3.415-1.236,5.452c-0.363,2.037-0.541,3.592-0.541,4.636
	c0,2.638,0.585,4.438,1.771,5.394c1.171,0.956,3.222,1.437,6.126,1.437c1.369,0,2.903-0.244,4.637-0.719
	c1.718-0.474,2.963-0.896,3.748-1.259L117.211,147.107z M116.218,66.53c-2.614,2.43-5.763,3.645-9.443,3.645
	c-3.675,0-6.845-1.215-9.481-3.645c-2.623-2.43-3.948-5.385-3.948-8.837c0-3.444,1.333-6.407,3.948-8.859
	c2.637-2.459,5.807-3.681,9.481-3.681c3.681,0,6.837,1.222,9.443,3.681c2.615,2.452,3.927,5.415,3.927,8.859
	C120.145,61.152,118.833,64.1,116.218,66.53z"/>
</svg>
