<?xml version="1.0" encoding="utf-8"?>
<!-- Generator: Adobe Illustrator 16.0.0, SVG Export Plug-In . SVG Version: 6.00 Build 0)  -->
<!DOCTYPE svg PUBLIC "-//W3C//DTD SVG 1.1//EN" "http://www.w3.org/Graphics/SVG/1.1/DTD/svg11.dtd">
<svg version="1.1" id="Layer_1" xmlns="http://www.w3.org/2000/svg" xmlns:xlink="http://www.w3.org/1999/xlink" x="0px" y="0px"
	 width="200px" height="200px" viewBox="0 0 200 200" enable-background="new 0 0 200 200" xml:space="preserve">
<g>
	<g>
		<g>
			<path fill="#FFFFFF" d="M194.917,91.46c-0.389-0.93-0.945-1.776-1.653-2.486l-22.868-22.867c-2.98-2.974-7.8-2.974-10.781,0
				c-2.981,2.981-2.981,7.808,0,10.781l9.859,9.859H126.88c-4.217,0-7.625,3.416-7.625,7.625s3.408,7.625,7.625,7.625h42.593
				l-9.858,9.858c-2.982,2.982-2.982,7.809,0,10.782c1.486,1.495,3.438,2.234,5.391,2.234s3.904-0.739,5.391-2.234l22.868-22.868
				c0.708-0.701,1.265-1.548,1.653-2.486C195.688,95.426,195.688,93.321,194.917,91.46z"/>
			<path fill="#FFFFFF" d="M142.13,117.25c-4.217,0-7.625,3.416-7.625,7.625V163h-30.5V41c0-3.362-2.211-6.336-5.437-7.304
				L72.087,25.75h62.418v38.125c0,4.209,3.408,7.625,7.625,7.625s7.625-3.416,7.625-7.625v-45.75c0-4.209-3.408-7.625-7.625-7.625
				h-122c-0.274,0-0.519,0.114-0.785,0.145c-0.358,0.039-0.687,0.1-1.029,0.184c-0.801,0.205-1.525,0.518-2.204,0.945
				c-0.167,0.106-0.374,0.114-0.534,0.236c-0.062,0.046-0.084,0.13-0.146,0.176c-0.831,0.656-1.525,1.456-2.028,2.41
				c-0.107,0.206-0.13,0.427-0.213,0.64c-0.244,0.58-0.511,1.144-0.603,1.785c-0.038,0.229,0.03,0.442,0.023,0.663
				c-0.007,0.152-0.107,0.29-0.107,0.442v152.5c0,3.637,2.569,6.764,6.131,7.473l76.25,15.25c0.496,0.106,0.999,0.152,1.495,0.152
				c1.746,0,3.461-0.603,4.834-1.73c1.761-1.449,2.79-3.606,2.79-5.895v-7.624h38.126c4.217,0,7.625-3.416,7.625-7.626v-45.75
				C149.755,120.666,146.347,117.25,142.13,117.25z"/>
		</g>
	</g>
</g>
</svg>
