<?xml version="1.0" encoding="utf-8"?>
<!-- Generator: Adobe Illustrator 16.0.0, SVG Export Plug-In . SVG Version: 6.00 Build 0)  -->
<!DOCTYPE svg PUBLIC "-//W3C//DTD SVG 1.1//EN" "http://www.w3.org/Graphics/SVG/1.1/DTD/svg11.dtd">
<svg version="1.1" id="Layer_1" xmlns="http://www.w3.org/2000/svg" xmlns:xlink="http://www.w3.org/1999/xlink" x="0px" y="0px"
	 width="200px" height="200px" viewBox="0 0 200 200" enable-background="new 0 0 200 200" xml:space="preserve">
<g>
	<path id="settings_1_" fill="#FFFFFF" d="M188.974,86.02l-19.019-3.173c-1.383-5.651-3.398-11.053-6.023-16.091l12.176-15.096
		c2.59-3.191,2.471-7.781-0.259-10.86l-7.564-8.513c-2.742-3.076-7.288-3.727-10.756-1.535l-16.266,10.225
		c-7.154-4.999-15.257-8.689-24-10.831l-3.181-19.122c-0.668-4.049-4.172-7.02-8.284-7.02H94.398c-4.104,0-7.62,2.971-8.273,7.02
		L82.926,30.15c-7.228,1.77-14.003,4.625-20.188,8.388L47.27,27.499c-3.334-2.382-7.913-2.009-10.821,0.894l-8.054,8.059
		c-2.903,2.91-3.275,7.488-0.888,10.822l11.065,15.498c-3.726,6.138-6.554,12.875-8.322,20.038l-19.23,3.211
		C6.977,86.688,4,90.192,4,94.305v11.39c0,4.112,2.976,7.617,7.019,8.285l19.23,3.21c1.453,5.895,3.562,11.525,6.366,16.745
		l-12.12,15.012c-2.582,3.188-2.473,7.779,0.257,10.857l7.559,8.513c2.742,3.082,7.291,3.72,10.76,1.535l16.5-10.365
		c6.981,4.774,14.88,8.285,23.355,10.365l3.199,19.123c0.654,4.049,4.169,7.021,8.273,7.021h11.399c4.112,0,7.616-2.972,8.284-7.019
		l3.188-19.125c7.137-1.745,13.827-4.553,19.956-8.251l16.112,11.51c3.328,2.39,7.91,2.015,10.816-0.898l8.057-8.056
		c2.9-2.9,3.293-7.477,0.885-10.816l-11.473-16.084c3.738-6.157,6.579-12.908,8.338-20.103l19.019-3.176
		c4.054-0.667,7.02-4.171,7.02-8.284v-11.39C195.992,90.192,193.028,86.688,188.974,86.02z M100.301,135.998
		c-19.877,0-35.999-16.124-35.999-35.998c0-19.877,16.122-35.999,35.999-35.999c19.873,0,35.998,16.121,35.998,35.999
		C136.299,119.874,120.174,135.998,100.301,135.998z"/>
</g>
</svg>
