<?xml version="1.0" encoding="utf-8"?>
<!-- Generator: Adobe Illustrator 16.0.0, SVG Export Plug-In . SVG Version: 6.00 Build 0)  -->
<!DOCTYPE svg PUBLIC "-//W3C//DTD SVG 1.1//EN" "http://www.w3.org/Graphics/SVG/1.1/DTD/svg11.dtd">
<svg version="1.1" id="Layer_1" xmlns="http://www.w3.org/2000/svg" xmlns:xlink="http://www.w3.org/1999/xlink" x="0px" y="0px"
	 width="150px" height="150px" viewBox="0 0 150 150" enable-background="new 0 0 150 150" xml:space="preserve">
<g>
	<path fill="#FFFDFD" d="M52.816,70.013c-2.605-10.785-11.185-13.671-18.954-11.794C21.986,61.09,16.711,69.364,18.588,77.133
		c0.946,3.914,4.39,4.376,4.591,5.206c0.218,0.902-0.155,1.332-1.053,1.55c-3.404,0.82-10.983-0.743-12.208-5.817
		c-2.314-9.568,9.514-20.238,23.188-23.544c9.755-2.356,24.876,0.577,28.492,15.538c3.131,12.969-2.4,28.038-14.408,30.937
		c-5.518,1.334-11.198,0.33-16.459-0.914c-2.45,3.922-6.141,6.376-10.634,7.464c-5.264,1.271-10.953-0.345-12.041-4.838
		c-1.146-4.751,2.665-8.663,6.387-9.563c3.786-0.915,7.693-0.226,11.596,0.732c0.191-0.589,0.313-1.231,0.43-1.869
		c1.455-7.76,2.055-24.963,4.283-27.266c2.584-2.8,5.718-4.168,7.194-4.526c0.839-0.201,1.12,0.138,1.244,0.648
		c0.124,0.516-1.512,3.018-2.232,6.794c-0.397,1.999-1.366,15.144-3.22,24.627c-0.249,1.216-0.593,2.318-0.938,3.421
		c3.391,0.814,6.623,1.254,9.703,0.513C51.748,93.989,55.486,81.059,52.816,70.013z M13.445,101.953
		c0.419,1.735,2.429,2.47,4.486,1.977c2.825-0.685,4.938-2.351,6.498-5.447c-3.23-0.713-6.045-1.12-8.356-0.56
		C14.082,98.404,13.026,100.222,13.445,101.953z"/>
	<path fill="#FFFDFD" d="M90.944,90.427c-3.532,0.854-6.742-0.34-8.062-3.826c0,0-2.918,6.479-7.797,7.66
		c-3.465,0.837-7.089-1.212-8.033-5.126c-2.234-9.246,3.096-20.931,10.162-22.638c5.195-1.255,7.722,1.325,7.722,1.325
		c1.927-0.464,4.747-0.329,5.29,1.915c0.467,1.93-1.49,10.146-0.434,14.514c0.246,1.024,1.141,1.628,2.23,1.36
		c3.467-0.833,5.539-7.178,5.539-7.178s0.298-1.024,1.062-1.208c0.711-0.172,1.49,0.252,1.658,0.957
		c0.142,0.577-0.202,1.68-0.202,1.68S97.301,88.895,90.944,90.427z M79.456,69.895c-3.721,0.9-6.139,10.861-4.833,16.256
		c0.449,1.859,1.212,2.766,2.559,2.437c3.081-0.745,6.452-11.547,5.258-16.489C81.988,70.237,80.742,69.583,79.456,69.895z"/>
	<path fill="#FFFDFD" d="M117.27,79.51c3.467-0.837,5.539-7.18,5.539-7.18s0.294-1.022,1.066-1.209
		c0.703-0.17,1.486,0.252,1.654,0.958c0.142,0.579-0.202,1.68-0.202,1.68s-2.779,9.033-9.136,10.569
		c-4.877,1.178-8.853-0.921-9.705-4.453c-1.364-5.649,1.609-11.054,1.128-13.046c-0.31-1.284-4.224-0.609-4.224-0.609
		c-0.937,6.817-2.428,11.324-3.295,13.641c-0.13,0.302-0.409,1.115-1.182,1.305c-0.642,0.155-1.518-0.38-1.674-1.026
		c-0.138-0.577,0.218-1.344,0.332-1.708c0.753-1.95,2.424-6.296,2.825-12.783c0,0-2.492-1.024-3.269-4.235
		c-0.635-2.632,1.036-5.281,2.576-5.651c1.801-0.434,4.48,1.091,4.79,2.375c0.401,1.67-0.184,2.897,0.064,3.926
		c0.218,0.898,1.483,1.068,3.021,0.697c2.894-0.699,3.589-1.749,5.129-2.123c1.541-0.371,2.975,0.776,3.379,2.446
		c0.696,2.89-2.736,9.495-1.479,14.695C114.965,79.254,115.989,79.819,117.27,79.51z"/>
	<path fill="#FFFDFD" d="M143.312,69.958c0,0,0.555-1.087,1.196-1.242c0.772-0.188,1.487,0.252,1.659,0.958
		c0.142,0.577-0.463,1.745-0.463,1.745s-2.92,6.479-9.854,8.157c-6.483,1.565-12.133-1.284-13.451-6.741
		c-2.374-9.822,4.212-18.279,9.797-19.626c3.918-0.948,7.87,1.63,8.691,5.034c0.746,3.081-0.08,10.074-8.168,12.029
		c-0.703,0.172-2.534,0.206-2.534,0.206c0.917,3.788,4.018,5.076,7.098,4.331C141.198,73.864,142.616,71.007,143.312,69.958z
		 M136.125,57.08c-0.202-0.83-0.76-1.171-1.468-1.001c-3.527,0.853-5.588,8.352-4.785,11.687
		C134.559,66.636,136.775,59.781,136.125,57.08z"/>
</g>
</svg>
